<mxfile host="app.diagrams.net" modified="2021-12-08T17:13:37.279Z" agent="5.0 (Macintosh; Intel Mac OS X 10_15_7) AppleWebKit/537.36 (KHTML, like Gecko) Chrome/96.0.4664.55 Safari/537.36" etag="v1iDzzCsWCzww1rBGehJ" version="15.8.1" type="github">
  <diagram id="C5RBs43oDa-KdzZeNtuy" name="Page-1">
    <mxGraphModel dx="909" dy="547" grid="1" gridSize="10" guides="1" tooltips="1" connect="1" arrows="1" fold="1" page="1" pageScale="1" pageWidth="827" pageHeight="1169" math="0" shadow="0">
      <root>
        <mxCell id="WIyWlLk6GJQsqaUBKTNV-0" />
        <mxCell id="WIyWlLk6GJQsqaUBKTNV-1" parent="WIyWlLk6GJQsqaUBKTNV-0" />
        <mxCell id="fvK45VZ6i1uw3XIzivUy-0" value="1" style="ellipse;whiteSpace=wrap;html=1;aspect=fixed;" vertex="1" parent="WIyWlLk6GJQsqaUBKTNV-1">
          <mxGeometry x="260" y="40" width="40" height="40" as="geometry" />
        </mxCell>
        <mxCell id="fvK45VZ6i1uw3XIzivUy-1" value="2" style="ellipse;whiteSpace=wrap;html=1;aspect=fixed;" vertex="1" parent="WIyWlLk6GJQsqaUBKTNV-1">
          <mxGeometry x="260" y="130" width="40" height="40" as="geometry" />
        </mxCell>
        <mxCell id="fvK45VZ6i1uw3XIzivUy-2" value="3" style="ellipse;whiteSpace=wrap;html=1;aspect=fixed;" vertex="1" parent="WIyWlLk6GJQsqaUBKTNV-1">
          <mxGeometry x="320" y="205" width="40" height="40" as="geometry" />
        </mxCell>
        <mxCell id="fvK45VZ6i1uw3XIzivUy-3" value="4" style="ellipse;whiteSpace=wrap;html=1;aspect=fixed;" vertex="1" parent="WIyWlLk6GJQsqaUBKTNV-1">
          <mxGeometry x="180" y="205" width="40" height="40" as="geometry" />
        </mxCell>
        <mxCell id="fvK45VZ6i1uw3XIzivUy-4" value="5" style="ellipse;whiteSpace=wrap;html=1;aspect=fixed;" vertex="1" parent="WIyWlLk6GJQsqaUBKTNV-1">
          <mxGeometry x="210" y="260" width="40" height="40" as="geometry" />
        </mxCell>
        <mxCell id="fvK45VZ6i1uw3XIzivUy-5" value="6" style="ellipse;whiteSpace=wrap;html=1;aspect=fixed;" vertex="1" parent="WIyWlLk6GJQsqaUBKTNV-1">
          <mxGeometry x="135" y="260" width="42.5" height="42.5" as="geometry" />
        </mxCell>
        <mxCell id="fvK45VZ6i1uw3XIzivUy-6" value="7" style="ellipse;whiteSpace=wrap;html=1;aspect=fixed;" vertex="1" parent="WIyWlLk6GJQsqaUBKTNV-1">
          <mxGeometry x="170" y="330" width="40" height="40" as="geometry" />
        </mxCell>
        <mxCell id="fvK45VZ6i1uw3XIzivUy-7" value="8" style="ellipse;whiteSpace=wrap;html=1;aspect=fixed;" vertex="1" parent="WIyWlLk6GJQsqaUBKTNV-1">
          <mxGeometry x="320" y="390" width="40" height="40" as="geometry" />
        </mxCell>
        <mxCell id="fvK45VZ6i1uw3XIzivUy-8" value="9" style="ellipse;whiteSpace=wrap;html=1;aspect=fixed;" vertex="1" parent="WIyWlLk6GJQsqaUBKTNV-1">
          <mxGeometry x="320" y="460" width="40" height="40" as="geometry" />
        </mxCell>
        <mxCell id="fvK45VZ6i1uw3XIzivUy-12" value="" style="endArrow=classic;html=1;rounded=0;" edge="1" parent="WIyWlLk6GJQsqaUBKTNV-1" source="fvK45VZ6i1uw3XIzivUy-0" target="fvK45VZ6i1uw3XIzivUy-1">
          <mxGeometry width="50" height="50" relative="1" as="geometry">
            <mxPoint x="390" y="310" as="sourcePoint" />
            <mxPoint x="440" y="260" as="targetPoint" />
          </mxGeometry>
        </mxCell>
        <mxCell id="fvK45VZ6i1uw3XIzivUy-13" value="" style="endArrow=classic;html=1;rounded=0;exitX=0;exitY=1;exitDx=0;exitDy=0;entryX=1;entryY=0;entryDx=0;entryDy=0;" edge="1" parent="WIyWlLk6GJQsqaUBKTNV-1" source="fvK45VZ6i1uw3XIzivUy-1" target="fvK45VZ6i1uw3XIzivUy-3">
          <mxGeometry width="50" height="50" relative="1" as="geometry">
            <mxPoint x="390" y="310" as="sourcePoint" />
            <mxPoint x="440" y="260" as="targetPoint" />
          </mxGeometry>
        </mxCell>
        <mxCell id="fvK45VZ6i1uw3XIzivUy-14" value="" style="endArrow=classic;html=1;rounded=0;exitX=1;exitY=1;exitDx=0;exitDy=0;" edge="1" parent="WIyWlLk6GJQsqaUBKTNV-1" source="fvK45VZ6i1uw3XIzivUy-1" target="fvK45VZ6i1uw3XIzivUy-2">
          <mxGeometry width="50" height="50" relative="1" as="geometry">
            <mxPoint x="390" y="310" as="sourcePoint" />
            <mxPoint x="440" y="260" as="targetPoint" />
          </mxGeometry>
        </mxCell>
        <mxCell id="fvK45VZ6i1uw3XIzivUy-15" value="" style="endArrow=classic;html=1;rounded=0;" edge="1" parent="WIyWlLk6GJQsqaUBKTNV-1" source="fvK45VZ6i1uw3XIzivUy-2" target="fvK45VZ6i1uw3XIzivUy-7">
          <mxGeometry width="50" height="50" relative="1" as="geometry">
            <mxPoint x="390" y="310" as="sourcePoint" />
            <mxPoint x="440" y="260" as="targetPoint" />
          </mxGeometry>
        </mxCell>
        <mxCell id="fvK45VZ6i1uw3XIzivUy-16" value="" style="endArrow=classic;html=1;rounded=0;" edge="1" parent="WIyWlLk6GJQsqaUBKTNV-1" source="fvK45VZ6i1uw3XIzivUy-3" target="fvK45VZ6i1uw3XIzivUy-4">
          <mxGeometry width="50" height="50" relative="1" as="geometry">
            <mxPoint x="390" y="310" as="sourcePoint" />
            <mxPoint x="440" y="260" as="targetPoint" />
          </mxGeometry>
        </mxCell>
        <mxCell id="fvK45VZ6i1uw3XIzivUy-17" value="" style="endArrow=classic;html=1;rounded=0;" edge="1" parent="WIyWlLk6GJQsqaUBKTNV-1" source="fvK45VZ6i1uw3XIzivUy-3" target="fvK45VZ6i1uw3XIzivUy-5">
          <mxGeometry width="50" height="50" relative="1" as="geometry">
            <mxPoint x="390" y="310" as="sourcePoint" />
            <mxPoint x="440" y="260" as="targetPoint" />
          </mxGeometry>
        </mxCell>
        <mxCell id="fvK45VZ6i1uw3XIzivUy-18" value="" style="endArrow=classic;html=1;rounded=0;exitX=0.5;exitY=1;exitDx=0;exitDy=0;entryX=1;entryY=0;entryDx=0;entryDy=0;" edge="1" parent="WIyWlLk6GJQsqaUBKTNV-1" source="fvK45VZ6i1uw3XIzivUy-4" target="fvK45VZ6i1uw3XIzivUy-6">
          <mxGeometry width="50" height="50" relative="1" as="geometry">
            <mxPoint x="390" y="310" as="sourcePoint" />
            <mxPoint x="440" y="260" as="targetPoint" />
          </mxGeometry>
        </mxCell>
        <mxCell id="fvK45VZ6i1uw3XIzivUy-19" value="" style="endArrow=classic;html=1;rounded=0;exitX=0.5;exitY=1;exitDx=0;exitDy=0;entryX=0;entryY=0;entryDx=0;entryDy=0;" edge="1" parent="WIyWlLk6GJQsqaUBKTNV-1" source="fvK45VZ6i1uw3XIzivUy-5" target="fvK45VZ6i1uw3XIzivUy-6">
          <mxGeometry width="50" height="50" relative="1" as="geometry">
            <mxPoint x="390" y="310" as="sourcePoint" />
            <mxPoint x="440" y="260" as="targetPoint" />
          </mxGeometry>
        </mxCell>
        <mxCell id="fvK45VZ6i1uw3XIzivUy-20" value="" style="endArrow=classic;html=1;rounded=0;exitX=1;exitY=0.5;exitDx=0;exitDy=0;" edge="1" parent="WIyWlLk6GJQsqaUBKTNV-1" source="fvK45VZ6i1uw3XIzivUy-6" target="fvK45VZ6i1uw3XIzivUy-7">
          <mxGeometry width="50" height="50" relative="1" as="geometry">
            <mxPoint x="390" y="310" as="sourcePoint" />
            <mxPoint x="440" y="260" as="targetPoint" />
          </mxGeometry>
        </mxCell>
        <mxCell id="fvK45VZ6i1uw3XIzivUy-21" value="" style="endArrow=classic;html=1;rounded=0;exitX=1;exitY=0;exitDx=0;exitDy=0;" edge="1" parent="WIyWlLk6GJQsqaUBKTNV-1" source="fvK45VZ6i1uw3XIzivUy-7" target="fvK45VZ6i1uw3XIzivUy-0">
          <mxGeometry width="50" height="50" relative="1" as="geometry">
            <mxPoint x="390" y="310" as="sourcePoint" />
            <mxPoint x="400" y="50" as="targetPoint" />
            <Array as="points">
              <mxPoint x="390" y="396" />
              <mxPoint x="390" y="60" />
            </Array>
          </mxGeometry>
        </mxCell>
        <mxCell id="fvK45VZ6i1uw3XIzivUy-22" value="" style="endArrow=classic;html=1;rounded=0;exitX=0;exitY=0.5;exitDx=0;exitDy=0;entryX=0;entryY=0.5;entryDx=0;entryDy=0;" edge="1" parent="WIyWlLk6GJQsqaUBKTNV-1" source="fvK45VZ6i1uw3XIzivUy-0" target="fvK45VZ6i1uw3XIzivUy-8">
          <mxGeometry width="50" height="50" relative="1" as="geometry">
            <mxPoint x="390" y="310" as="sourcePoint" />
            <mxPoint x="120" y="480" as="targetPoint" />
            <Array as="points">
              <mxPoint x="120" y="60" />
              <mxPoint x="120" y="480" />
            </Array>
          </mxGeometry>
        </mxCell>
      </root>
    </mxGraphModel>
  </diagram>
</mxfile>
